<?xml version="1.0" encoding="utf-8"?>
<!-- Generator: Adobe Illustrator 23.0.0, SVG Export Plug-In . SVG Version: 6.00 Build 0)  -->
<svg version="1.1" id="Layer_1" xmlns="http://www.w3.org/2000/svg" xmlns:xlink="http://www.w3.org/1999/xlink" x="0px" y="0px"
	 viewBox="0 0 87 87" style="enable-background:new 0 0 87 87;" xml:space="preserve">
<style type="text/css">
	.st0{display:none;}
	.st1{display:inline;}
	.st2{fill:#FFFFFF;}
	.st3{fill:#FFFDFD;}
</style>
<g class="st0">
	<rect y="0" class="st1" width="87" height="87"/>
</g>
<g id="b">
	<g>
		<path class="st2" d="M16.7,4h-6.5V1.4h15.9v2.5h-6.4v26h-3V4z"/>
		<path class="st2" d="M39.7,24l-2.2,6.6l-3-1l7.4-21.8h3.8l7.4,21.8l-3,1L48.1,24H39.7z M43.9,11l-3.4,10.3h6.7L43.9,11z"/>
		<path class="st2" d="M36.3,35.5h3v9.3h9.3v-9.3h3v22.4h-3V47.3h-9.3v10.5h-3V35.5z"/>
		<path class="st2" d="M78.1,46.7c0,1.9-0.1,11.5-8.3,11.5c-3.8,0-8.3-2.5-8.3-11.5s4.4-11.6,8.3-11.6
			C73.4,35.1,78.1,37.7,78.1,46.7z M64.6,46.7c0,3.2,0.6,8.8,5.2,8.8s5.2-5.6,5.2-8.8c0-3.2-0.6-8.9-5.2-8.9S64.6,43.3,64.6,46.7z"
			/>
		<path class="st2" d="M12.8,67.5L12.8,67.5l-0.7,18.1H8.9l0.9-22.4h3.9l4.2,9.7l4.2-9.7h3.9L27,85.6h-3.2l-0.6-18.1H23l-5.2,11.8
			L12.8,67.5z"/>
		<path class="st2" d="M39.7,79.5l-2.2,6.6l-3-1l7.4-21.8h3.8L53.2,85l-3,1L48,79.5H39.7z M43.9,66.6l-3.4,10.3h6.7L43.9,66.6z"/>
	</g>
</g>
<g id="w" class="st0">
	<g class="st1">
		<path class="st3" d="M20.6,9.8H15V7.5h13.7v2.2h-5.5v22.4h-2.6V9.8z"/>
		<path class="st3" d="M40.5,27l-1.9,5.7L36,31.8L42.4,13h3.3l6.4,18.8l-2.6,0.9L47.7,27H40.5z M44.1,15.8l-2.9,8.9H47L44.1,15.8z"
			/>
		<path class="st3" d="M37.5,36.9h2.6v8h8v-8h2.6v19.3h-2.6v-9.1h-8v9.1h-2.6V36.9z"/>
		<path class="st3" d="M73.6,46.6c0,1.6-0.1,9.9-7.2,9.9c-3.3,0-7.2-2.2-7.2-9.9s3.8-10,7.2-10C69.6,36.6,73.6,38.8,73.6,46.6z
			 M62,46.6c0,2.8,0.5,7.6,4.5,7.6s4.5-4.8,4.5-7.6s-0.5-7.7-4.5-7.7S62,43.7,62,46.6z"/>
		<path class="st3" d="M17.3,64.6L17.3,64.6l-0.6,15.6h-2.8l0.8-19.3h3.4l3.6,8.4l3.6-8.4h3.4l0.8,19.3h-2.8l-0.5-15.6h-0.1
			l-4.5,10.2L17.3,64.6z"/>
		<path class="st3" d="M40.5,74.9l-1.9,5.7L36,79.7l6.4-18.8h3.3l6.4,18.8l-2.6,0.9l-1.9-5.7H40.5z M44.1,63.8l-2.9,8.9H47
			L44.1,63.8z"/>
	</g>
</g>
<g class="st0">
	<g class="st1">
		<path class="st2" d="M43.5,5C64.7,5,82,22.3,82,43.5S64.7,82,43.5,82S5,64.7,5,43.5S22.3,5,43.5,5 M43.5,0C19.5,0,0,19.5,0,43.5
			S19.5,87,43.5,87S87,67.5,87,43.5S67.5,0,43.5,0L43.5,0z"/>
	</g>
	<g class="st1">
		<path class="st2" d="M22.6,52.5l2.6-3.5c1.2-1.7,2.3-3.3,3.6-4.9c1.7-2.2,3.6-4.4,5.4-6.6c3.3-3.9,6.9-7.6,10.5-11.2
			c0.7-0.7,1.4-1.5,2-2.3c0.5-0.6,1.1-0.7,1.8-0.7c1.4,0,2.7,0.3,3.9,1.1c1,0.7,1.1,1.4,0.6,2.3l-8.2,13.8c-0.4,0.8-0.9,1.6-1.3,2.4
			c-0.7,1.4-1.2,2.8-1.7,4.4c0.2-0.2,0.4-0.4,0.6-0.7c2.3-3.2,5.1-6.2,7.9-9.2c0.8-0.9,1.8-1.8,2.5-2.7c1.4-2,3.2-3.6,4.9-5.4
			l5.1-5.5c1.6-1.7,3.2-3.4,4.8-5.1c0.7-0.7,1.6-0.9,2.5-0.5c1,0.5,2,1,2.8,1.7c1,0.7,1,1.3,0.2,2.2c-0.2,0.3-0.4,0.7-0.6,1
			c-5.4,9.4-10.1,19-14.9,28.6c-1.6,3.1-3,6.1-4.5,9.3c-0.4,0.9-0.6,1.9-0.7,3c0.5-0.5,1.1-0.9,1.5-1.5c3.2-3.8,6.4-7.6,9.5-11.4
			c0.6-0.7,1.3-1,2.2-1c0.3,0,0.7,0.2,0.8,0.4c0.1,0.2,0.1,0.7-0.2,1c-0.6,0.6-1.3,1.1-1.9,1.8c-2.2,2.4-4.1,5-6.2,7.3
			c-2.7,3.1-5.3,6.6-7.4,10.1c-1,1.7-2.8,1.9-4.2,1.3c-0.8-0.3-1.6-0.7-2.3-1.3c-0.8-0.5-0.9-1.4-0.7-2.2c0.7-2,1.2-4.2,2.1-6.1
			c2.1-4.7,4.4-9.3,6.6-13.9c1.4-2.8,2.7-5.6,4.2-8.4c2-3.6,4.1-7.3,6.1-10.9l0.7-1.3c-0.1-0.1-0.2-0.1-0.3-0.2l-6.1,6
			c-0.5,0.5-1,0.9-1.4,1.4c-1.9,2-3.8,3.9-5.6,5.9c-1,1.1-1.9,2.4-2.8,3.6c-1.6,2.1-3.2,4.2-5,6.3c-0.7,0.9-1.7,1.6-2.7,2.2
			c-0.4,0.2-1.2,0.1-1.7-0.1c-1.3-0.3-2.3-1.1-2.9-2.2c-0.2-0.3-0.4-0.5-0.8-0.9c2-6,5-11.6,8.5-17.2c-0.4,0.2-0.5,0.2-0.5,0.3
			c-7.2,6.8-13,14.4-18.7,22.4c-0.4,0.6-0.7,1.3-1.1,1.9c-0.7,1.1-1.4,2.2-2.3,3.1c-0.7,0.9-2.3,1.1-3.2,0.6
			c-1.4-0.8-2.7-1.6-3.2-3.6c2-4.3,4.1-9,6.5-13.5c2.3-4.5,4.9-8.9,7.4-13.4c-0.8,0.4-1.7,1.5-2.2,2.3c-0.6,0.9-1.2,1.8-1.9,2.7
			c-0.6,0.8-2.5-0.1-3.2-0.3c-0.4-1.3-0.8-3.2-0.3-4.5c0.5-1.2,1.9-1.9,3-2.7c2.6-2,5.2-3.9,8.1-5.5c0.3-0.1,0.5-0.3,0.8-0.5
			c1.6-0.9,3.6-0.6,5,0.7c0.7,0.6,0.9,1.2,0.4,1.9c-1.4,1.9-2.2,4.2-3.2,6.3c-1.3,2.6-2.9,5-4.3,7.5c-1.5,2.6-2.9,5.2-4.3,7.9
			c-1,1.9-1.8,3.8-2.7,5.6l-0.2,0.6C22.5,52.4,22.5,52.5,22.6,52.5z"/>
	</g>
</g>
</svg>
