<?xml version="1.0" encoding="utf-8"?>
<!-- Generator: Adobe Illustrator 23.0.0, SVG Export Plug-In . SVG Version: 6.00 Build 0)  -->
<svg version="1.1" id="Layer_1" xmlns="http://www.w3.org/2000/svg" xmlns:xlink="http://www.w3.org/1999/xlink" x="0px" y="0px"
	 viewBox="0 0 226.8 99.2" style="enable-background:new 0 0 226.8 99.2;" xml:space="preserve">
<style type="text/css">
	.st0{fill:#010202;}
</style>
<path class="st0" d="M12.5,31.5H2.9v-3.9h23.4v3.8h-9.4v38.3h-4.4V31.5z"/>
<path class="st0" d="M44.5,60.9l-3.2,9.7l-4.4-1.5l10.9-32.2h5.6l10.9,32.2l-4.4,1.5l-3.1-9.7H44.5z M50.7,41.7l-5,15.2h9.9
	L50.7,41.7z"/>
<path class="st0" d="M78.9,36.9h4.4v13.7H97V36.9h4.4v33H97V54.3H83.4v15.6h-4.4V36.9z"/>
<path class="st0" d="M140.7,53.5c0,2.7-0.2,16.9-12.3,16.9c-5.6,0-12.3-3.8-12.3-16.9s6.5-17.1,12.3-17.1
	C133.8,36.3,140.7,40.1,140.7,53.5z M120.8,53.5c0,4.8,0.9,13,7.7,13c6.8,0,7.7-8.2,7.7-13s-0.9-13.2-7.7-13.2
	C121.7,40.3,120.8,48.5,120.8,53.5z"/>
<path class="st0" d="M157.7,42.8L157.7,42.8l-1,26.7h-4.8l1.4-33h5.8l6.2,14.4l6.2-14.4h5.8l1.4,33h-4.8L173,42.8h-0.2l-7.7,17.4
	L157.7,42.8z"/>
<path class="st0" d="M197.4,60.5l-3.2,9.7l-4.4-1.5l10.9-32.2h5.6l10.9,32.2l-4.4,1.5l-3.2-9.7H197.4z M203.6,41.5l-5,15.2h9.9
	L203.6,41.5z"/>
</svg>
