<?xml version="1.0" encoding="utf-8"?>
<!-- Generator: Adobe Illustrator 23.0.0, SVG Export Plug-In . SVG Version: 6.00 Build 0)  -->
<svg version="1.1" xmlns="http://www.w3.org/2000/svg" xmlns:xlink="http://www.w3.org/1999/xlink" x="0px" y="0px"
	 viewBox="0 0 320 320" style="enable-background:new 0 0 320 320;" xml:space="preserve">
<style type="text/css">
	.st0{display:none;}
	.st1{display:inline;}
	.st2{fill:#231815;}
	.st3{font-family:'OratorStd';}
	.st4{font-size:162.3792px;}
	.st5{letter-spacing:-3.8;}
</style>
<g id="Layer_1" class="st0">
	<g transform="translate(0.000000,320.000000) scale(0.100000,-0.100000)" class="st1">
		<path d="M1459,3196c-2-3-33-7-67-10c-35-3-67-8-70-10c-4-2-25-7-47-10c-22-4-65-14-95-22c-30-9-62-17-70-19c-33-7-210-84-278-121
			c-258-142-497-380-637-639c-84-154-158-380-182-551c-10-72-10-348,0-424C71,944,331,524,700,280c41-28,80-54,86-59
			c24-19,222-109,294-134c195-66,336-87,555-82c176,4,200,7,319,35c295,69,554,210,762,415c267,263,420,572,473,955
			c10,68,7,364-3,415c-4,17-14,66-22,110c-101,506-477,952-968,1150c-91,36-235,77-316,90c-25,4-54,9-65,12
			C1790,3193,1464,3201,1459,3196z M1877,2971c230-48,445-150,612-291c28-24,51-46,51-50c0-3-60-46-132-95c-121-81-445-320-476-351
			c-7-7-34-30-60-51s-52-42-58-48c-6-5-45-39-85-75c-117-103-395-375-474-464c-33-36-171-195-189-216c-11-14-42-50-67-80
			c-82-98-262-342-344-467c-44-67-83-122-87-122c-14-2-133,156-177,234c-93,162-152,333-179,520c-14,95-7,355,12,445
			c89,434,352,785,734,982c84,43,209,94,252,103c3,1,40,9,83,19c127,30,174,34,332,31C1731,2993,1805,2986,1877,2971z M2730,2426
			c112-148,224-408,247-571c3-22,9-60,13-85c16-87,5-347-20-454c-126-562-529-963-1091-1087c-87-19-133-23-279-23
			c-196,0-275,12-447,69c-104,35-294,126-323,155c-3,3-24,18-47,34c-73,49-74,42,22,186c78,116,148,214,217,305
			c47,61,233,291,262,324c17,19,54,59,81,90c65,72,351,360,435,436c54,49,112,99,265,228c119,100,594,443,617,446
			C2686,2480,2708,2456,2730,2426z"/>
	</g>
</g>
<g id="Layer_2">
	<text transform="matrix(1.0501 0 0 1 15.0078 118.6712)"><tspan x="0" y="0" class="st2 st3 st4 st5">Ta</tspan><tspan x="0" y="96" class="st2 st3 st4 st5"> ho</tspan><tspan x="0" y="192" class="st2 st3 st4 st5">ma</tspan></text>
</g>
</svg>
