<?xml version="1.0" encoding="utf-8"?>
<!-- Generator: Adobe Illustrator 23.0.0, SVG Export Plug-In . SVG Version: 6.00 Build 0)  -->
<svg version="1.1" id="Layer_1" xmlns="http://www.w3.org/2000/svg" xmlns:xlink="http://www.w3.org/1999/xlink" x="0px" y="0px"
	 viewBox="0 0 99.2 99.2" style="enable-background:new 0 0 99.2 99.2;" xml:space="preserve">
<style type="text/css">
	.st0{fill:#FFFFFF;}
</style>
<g id="b">
	<g>
		<path class="st0" d="M17.3,3.3H9.7V0.2h18.5v3h-7.4v30.3h-3.5V3.3z"/>
		<path class="st0" d="M44.2,26.5l-2.6,7.7L38.1,33l8.7-25.4h4.5L59.9,33l-3.5,1.2l-2.4-7.7H44.2z M49.1,11.4l-3.9,12H53L49.1,11.4z
			"/>
		<path class="st0" d="M40.1,39.9h3.5v10.8h10.8V39.9H58V66h-3.5V53.7H43.6V66h-3.5V39.9z"/>
		<path class="st0" d="M88.9,53c0,2.2-0.1,13.4-9.7,13.4c-4.5,0-9.7-3-9.7-13.4s5.1-13.5,9.7-13.5C83.5,39.5,88.9,42.5,88.9,53z
			 M73.2,53c0,3.8,0.7,10.3,6.1,10.3s6.1-6.5,6.1-10.3s-0.7-10.4-6.1-10.4S73.2,49.1,73.2,53z"/>
		<path class="st0" d="M12.8,77.4L12.8,77.4L12,98.5H8.2l1.1-26.1h4.6l4.9,11.4l4.9-11.4h4.6l1.1,26.1h-3.8l-0.7-21.1h-0.1
			l-6.1,13.8L12.8,77.4z"/>
		<path class="st0" d="M44.2,91.3L41.6,99l-3.5-1.2l8.7-25.4h4.5l8.7,25.4L56.4,99l-2.6-7.7H44.2z M49.1,76.3l-3.9,12H53L49.1,76.3z
			"/>
	</g>
</g>
</svg>
