<?xml version="1.0" encoding="utf-8"?>
<!-- Generator: Adobe Illustrator 23.0.0, SVG Export Plug-In . SVG Version: 6.00 Build 0)  -->
<svg version="1.1" xmlns="http://www.w3.org/2000/svg" xmlns:xlink="http://www.w3.org/1999/xlink" x="0px" y="0px"
	 viewBox="0 0 139.2 52.5" style="enable-background:new 0 0 139.2 52.5;" xml:space="preserve">
<style type="text/css">
	.st0{display:none;}
	.st1{display:inline;fill:#FFF200;}
	.st2{fill:#FFFFFF;}
	.st3{display:inline;fill:none;stroke:#FFFFFF;stroke-miterlimit:10;}
	.st4{display:inline;fill:#A8A8A8;}
</style>
<g id="Layer_3" class="st0">
	<rect x="-10" y="-4" class="st1" width="160.1" height="60.4"/>
</g>
<g id="Layer_1">
	<g>
		<polygon points="93.1,28 97.4,28 95.2,21.5 		"/>
		<path d="M80.9,23.3c0-1.3-0.8-2.2-2.6-2.2h-3.2v4.8l2.6,0C79.6,25.9,80.9,24.9,80.9,23.3z"/>
		<path d="M-10-4v60.4h160.1V-4H-10z M19.8,33.8h-1.7V19.2h1.7V33.8z M28.9,33.8h-1.7V19.2h1.7V33.8z M60.3,32c1,0,2-0.2,2.8-0.7
			v-3.7h-3.7V26h5.6v6.2c-1.3,0.9-3.1,1.5-4.7,1.5c-4.5,0-5.8-3.8-5.8-7.3c0-3.4,1.4-7.3,5.7-7.3c2.1,0,3.8,1.1,4.9,2.7l-1.7,1
			c-0.7-1.1-1.9-2-3.3-2c-3,0-3.6,3.5-3.6,5.6C56.7,28.7,57.3,32,60.3,32z M81.9,33.8L78,27.5h-2.8v6h-2V19.4h5.2
			c2.6,0,4.6,1.1,4.6,3.8c0,1.7-1.3,3.4-3.1,3.9l3.8,5.7L81.9,33.8z M99.4,33.8L98,29.7l-5.4,0l-1.4,4.2l-1.9-0.6L94,19.4h2.5
			l4.8,13.8L99.4,33.8z M116.7,33.5l-0.4-11.4h-0.1l-3.4,7.4l-3.4-7.4h-0.1L109,33.5h-2.1l0.6-14.1h2.6l2.8,6.1l2.8-6.1h2.6
			l0.6,14.1H116.7z"/>
	</g>
	<g>
		<path id="패스_24_2_" class="st2" d="M48.2,32.9l-1.6,1L36.9,20l1.7-1L48.2,32.9z"/>
		<path id="패스_25_2_" class="st2" d="M28.8,32.7l-1.5,1.1l-9.1-13.7l1.6-1L28.8,32.7z"/>
		<path id="패스_27_2_" class="st2" d="M38.1,33.8l-1.5-1.2l9.6-13.5l1.5,1.2L38.1,33.8z"/>
	</g>
</g>
<g id="Layer_4" class="st0">
	<rect y="0" class="st3" width="139.2" height="52.5"/>
</g>
<g id="Layer_8" class="st0">
	<path id="패스_11_1_" class="st4" d="M65.3,31.5c-1.1,0.8-2.7,1.3-4.1,1.3c-3.9,0-5-3.3-5-6.3c0-3,1.2-6.3,5-6.3
		c1.8,0,3.3,1,4.3,2.3L64,23.4c-0.6-1-1.6-1.7-2.9-1.7c-2.6,0-3.1,3-3.1,4.9c0,1.9,0.5,4.8,3.1,4.8c0.9,0,1.7-0.2,2.5-0.6v-3.2h-3.2
		v-1.4h4.9V31.5z"/>
	<path id="패스_12_1_" class="st4" d="M72.3,20.4h4.5c2.2,0,4,1,4,3.3c0,1.5-1.1,3-2.7,3.4l3.3,4.9l-1.5,0.8l-3.4-5.5H74v5.2h-1.7
		V20.4z M76.3,26c1.7,0,2.8-0.9,2.8-2.3c0-1.1-0.7-1.9-2.2-1.9H74V26L76.3,26z"/>
	<path id="패스_13_1_" class="st4" d="M89.1,29.3l-1.3,3.6l-1.7-0.6l4.2-12h2.2l4.2,12l-1.7,0.6l-1.2-3.6L89.1,29.3z M91.5,22.2
		l-1.9,5.7h3.8L91.5,22.2z"/>
	<path id="패스_14_1_" class="st4" d="M103.8,22.7L103.8,22.7l-0.4,9.9h-1.8l0.5-12.2h2.2l2.4,5.3l2.4-5.3h2.2l0.5,12.2h-1.8
		l-0.3-9.9h-0.1l-3,6.4L103.8,22.7z"/>
	<rect id="사각형_10_1_" x="32.4" y="20.1" class="st4" width="1.5" height="12.8"/>
	<rect id="사각형_11_1_" x="24.4" y="20.1" class="st4" width="1.5" height="12.8"/>
</g>
</svg>
