<svg xmlns="http://www.w3.org/2000/svg" viewBox="0 0 69.78 69.78"><defs><style>.cls-1{fill:#fff;}</style></defs><title>Asset 3</title><g id="Layer_2" data-name="Layer 2"><g id="Layer_14" data-name="Layer 14"><rect width="69.78" height="69.78"/></g><g id="Layer_7" data-name="Layer 7"><path class="cls-1" d="M21.38,13.16H17.84v-1.4h8.64v1.4H23V27.35H21.38Z"/><path class="cls-1" d="M34,24l-1.2,3.63L31.2,27.1l4-11.93h2.11l4,11.93-1.62.56L38.56,24Zm2.26-7-1.82,5.63h3.63Z"/><path class="cls-1" d="M32.1,30.35h1.65v5h5.06v-5h1.64V42.53H38.81V36.81H33.75v5.72H32.1Z"/><path class="cls-1" d="M54.93,36.46c0,1-.07,6.29-4.54,6.29-2.06,0-4.54-1.41-4.54-6.29s2.43-6.32,4.54-6.32S54.93,31.55,54.93,36.46Zm-7.36,0c0,1.77.34,4.81,2.82,4.81s2.83-3,2.83-4.81-.35-4.84-2.83-4.84S47.57,34.66,47.57,36.46Z"/><path class="cls-1" d="M19.29,47.85h-.05l-.32,9.87H17.18l.51-12.18h2.17l2.3,5.28,2.31-5.28h2.16l.52,12.18H25.4l-.32-9.87h0l-2.87,6.43Z"/><path class="cls-1" d="M34,54.4,32.82,58l-1.62-.56,4-11.92h2.11l4,11.92L39.74,58,38.56,54.4Zm2.26-7L34.46,53h3.63Z"/></g></g></svg>