<?xml version="1.0" encoding="utf-8"?>
<!-- Generator: Adobe Illustrator 23.0.0, SVG Export Plug-In . SVG Version: 6.00 Build 0)  -->
<svg version="1.1" id="Layer_1" xmlns="http://www.w3.org/2000/svg" xmlns:xlink="http://www.w3.org/1999/xlink" x="0px" y="0px"
	 viewBox="0 0 198.4 99.2" style="enable-background:new 0 0 198.4 99.2;" xml:space="preserve">
<style type="text/css">
	.st0{fill:#010202;}
</style>
<g>
	<path class="st0" d="M8.8,31.2H0v-3.5h21.4v3.5h-8.6v35.2H8.8V31.2z"/>
	<path class="st0" d="M40.1,58.2l-3,9l-4-1.4l10-29.6h5.2l10,29.6l-4,1.4l-2.9-9H40.1z M45.7,40.7l-4.5,14h9L45.7,40.7z"/>
	<path class="st0" d="M70.4,36.2h4.1v12.5H87V36.2h4.1v30.2H87V52.2H74.5v14.2h-4.1V36.2z"/>
	<path class="st0" d="M127,51.3c0,2.4-0.2,15.6-11.3,15.6c-5.1,0-11.3-3.5-11.3-15.6c0-12.1,6-15.7,11.3-15.7
		C120.8,35.7,127,39.1,127,51.3z M108.8,51.3c0,4.4,0.9,11.9,7,11.9c6.2,0,7-7.5,7-11.9c0-4.5-0.9-12-7-12
		C109.6,39.3,108.8,46.9,108.8,51.3z"/>
	<path class="st0" d="M143.7,41.9h-0.1l-0.8,24.5h-4.3l1.3-30.2h5.4l5.7,13.1l5.7-13.1h5.4l1.3,30.2h-4.3L158,41.9h-0.1l-7.1,15.9
		L143.7,41.9z"/>
	<path class="st0" d="M180.2,58.2l-3,9l-4-1.4l10-29.6h5.2l10,29.6l-4,1.4l-2.9-9H180.2z M185.8,40.7l-4.5,14h9L185.8,40.7z"/>
</g>
</svg>
