<?xml version="1.0" encoding="utf-8"?>
<!-- Generator: Adobe Illustrator 23.0.0, SVG Export Plug-In . SVG Version: 6.00 Build 0)  -->
<svg version="1.1" id="Layer_1" xmlns="http://www.w3.org/2000/svg" xmlns:xlink="http://www.w3.org/1999/xlink" x="0px" y="0px"
	 viewBox="0 0 230 99.2" style="enable-background:new 0 0 230 99.2;" xml:space="preserve">
<style type="text/css">
	.st0{fill:#FFFFFF;}
</style>
<g>
	<path class="st0" d="M10.2,27H0V23h24.8V27h-10v40.8h-4.6V27z"/>
	<path class="st0" d="M46.5,58.3L43,68.7l-4.6-1.6L50,32.8h6l11.6,34.3l-4.6,1.6l-3.4-10.4C59.6,58.3,46.5,58.3,46.5,58.3z M53,38
		l-5.2,16.2h10.4L53,38z"/>
	<path class="st0" d="M81.6,32.8h4.8v14.5h14.5V32.8h4.8v35h-4.8V51.4H86.4v16.5h-4.8V32.8z"/>
	<path class="st0" d="M147.2,50.3c0,2.8-0.2,18.1-13.1,18.1c-5.9,0-13.1-4.1-13.1-18.1s7-18.2,13.1-18.2
		C140,32.2,147.2,36.2,147.2,50.3z M126.1,50.3c0,5.1,1,13.8,8.1,13.8c7.2,0,8.1-8.7,8.1-13.8c0-5.2-1-13.9-8.1-13.9
		C127.1,36.4,126.1,45.2,126.1,50.3z"/>
	<path class="st0" d="M166.6,39.4h-0.1l-0.9,28.4h-5l1.5-35h6.3l6.6,15.2l6.6-15.2h6.3l1.5,35h-5l-1.2-28.4H183l-8.2,18.4
		L166.6,39.4z"/>
	<path class="st0" d="M208.9,58.3l-3.5,10.4l-4.6-1.6l11.6-34.3h6L230,67.1l-4.6,1.6L222,58.3C222,58.3,208.9,58.3,208.9,58.3z
		 M215.4,38l-5.2,16.2h10.4L215.4,38z"/>
</g>
</svg>
