<?xml version="1.0" encoding="utf-8"?>
<!-- Generator: Adobe Illustrator 23.0.0, SVG Export Plug-In . SVG Version: 6.00 Build 0)  -->
<svg version="1.1" id="Layer_1" xmlns="http://www.w3.org/2000/svg" xmlns:xlink="http://www.w3.org/1999/xlink" x="0px" y="0px"
	 viewBox="0 0 139.2 52.5" style="enable-background:new 0 0 139.2 52.5;" xml:space="preserve">
<style type="text/css">
	.st0{enable-background:new    ;}
	.st1{fill:#9E9E9E;}
	.st2{fill:#FFFFFF;}
	.st3{font-family:'MyriadPro-Regular';}
	.st4{font-size:12px;}
</style>
<title>Asset 3</title>
<g>
	<g id="Layer_14">
		<rect width="139.1" height="52.5"/>
	</g>
	<g class="st0">
		<path class="st1" d="M31.7,20.9v7.5c0,1.6,0.5,2.4,2.1,2.4c1.9,0,2.3-0.8,2.3-2.4v-7.5h1.5V29c0,1.5-1.1,3-3.8,3
			c-2.6,0-3.7-1.5-3.7-3.1v-8.1H31.7z"/>
		<path class="st2" d="M44.5,32.1l-1.4-0.7l3.7-5.4l-3.4-4.7l1.4-0.7l2.8,4.2l2.8-4.2l1.4,0.7L48.5,26l3.7,5.4l-1.4,0.7l-3.2-4.9
			L44.5,32.1z"/>
		<text transform="matrix(1 0 0 1 30.148 32.0443)" class="st3 st4">N</text>
	</g>
	<g class="st0">
		<path class="st1" d="M65.5,30.8c-1,0.7-2.5,1.2-3.7,1.2c-3.5,0-4.5-3-4.5-5.7c0-2.7,1.1-5.7,4.5-5.7c1.6,0,3,0.9,3.8,2.1l-1.3,0.8
			c-0.6-0.9-1.4-1.6-2.6-1.6c-2.4,0-2.8,2.7-2.8,4.4c0,1.7,0.4,4.3,2.8,4.3c0.8,0,1.6-0.2,2.2-0.6v-2.9h-2.9V26h4.4V30.8z"/>
		<path class="st1" d="M71.8,20.9h4.1c2,0,3.6,0.9,3.6,3c0,1.4-1,2.7-2.4,3.1l2.9,4.5l-1.3,0.7l-3.1-5h-2.2v4.7h-1.5V20.9z
			 M75.3,25.9c1.5,0,2.5-0.8,2.5-2c0-1-0.6-1.7-2-1.7h-2.5v3.8H75.3z"/>
		<path class="st1" d="M86.9,28.9l-1.1,3.3l-1.5-0.5l3.8-10.8h2l3.8,10.8l-1.5,0.5l-1.1-3.3H86.9z M89,22.5l-1.7,5.1h3.4L89,22.5z"
			/>
		<path class="st1" d="M100.1,23L100.1,23l-0.3,8.9h-1.6l0.5-11h2l2.2,4.8l2.2-4.8h2l0.5,11h-1.6l-0.3-8.9h0l-2.7,5.8L100.1,23z"/>
	</g>
</g>
</svg>
